<?xml version="1.0" standalone="no"?> <!DOCTYPE svg PUBLIC "-//W3C//DTD SVG 1.0//EN" "http://www.w3.org/TR/2001/REC-SVG-20010904/DTD/svg10.dtd" > <svg xmlns="http://www.w3.org/2000/svg" width="100%" height="100%">
<defs >
<font horiz-adv-x="1518" ><font-face
    font-family="Symbola"
    units-per-em="2048"
    panose-1="2 2 5 3 6 8 5 2 2 4"
    ascent="1606"
    descent="-442"
    alphabetic="0" />
<missing-glyph horiz-adv-x="1152" d="M1040 0H112V1494H1040V0ZM912 128V1366H240V128H912ZM810 984Q810 807 578 715L553 558H482L461 771Q663 805 663 958Q663 1115 329 1115L354 1222H362Q810 1222 810 984ZM613 352Q613 313 585 285T517 256Q478 256 450
284T421 352Q421 392 449 420T517 449Q556 449 584 421T613 352Z" />
<glyph unicode=" " glyph-name="space" horiz-adv-x="512" />
<glyph unicode="!" glyph-name="exclam" horiz-adv-x="682" d="M449 1362L370 430Q366 383 341 383Q316 383 312 430L233 1362Q233 1362 233 1371Q233 1414 265 1440T341 1466Q385 1466 417 1440T449 1371Q449 1362 449 1362ZM450 109Q450 64 418 32T341 0Q296
0 264 32T232 109Q232 153 264 185T341 217Q386 217 418 185T450 109Z" />
<glyph unicode="&quot;" glyph-name="quotedbl" horiz-adv-x="809" d="M701 1283Q701 1272 694 1260L423 788Q413 771 400 771Q381 771 381 783Q381 796 460 1030Q537 1257 554 1301Q570 1339 620 1339Q701 1339 701 1283ZM428 1283Q428 1272 421 1260L149 788Q139
771 127 771Q108 771 108 783Q108 796 187 1030Q264 1257 281 1301Q297 1339 347 1339Q428 1339 428 1283Z" />
<glyph unicode="#" glyph-name="numbersign" horiz-adv-x="1024" d="M985 382Q985 341 917 341H732L663 -53Q651 -121 610 -121Q577 -121 577 -86Q577 -75 581 -53L650 341H332L263 -53Q251 -121 210 -121Q177 -121 177 -86Q177 -75 181 -53L250 341H107Q39 341
39 382Q39 423 107 423H265L321 741H107Q39 741 39 782Q39 823 107 823H335L401 1197Q413 1265 454 1265Q487 1265 487 1230Q487 1219 483 1197L417 823H735L801 1197Q813 1265 854 1265Q887 1265 887 1230Q887 1219 883 1197L817 823H917Q985 823 985 782Q985
741 917 741H803L747 423H917Q985 423 985 382ZM721 741H403L347 423H665L721 741Z" />
<glyph unicode="$" glyph-name="dollar" horiz-adv-x="964" d="M854 376Q854 224 759 111Q660 -6 511 -19V-108H451V-22Q296 -12 202 88T108 344Q108 441 197 441Q235 441 260 416T285 353Q285 264 197 264Q183 264 166 268Q211 54 451 40V614Q290 655 213 730Q108
835 108 990Q108 1136 206 1240T451 1358V1446H511V1360Q663 1352 757 1262Q854 1169 854 1020Q854 924 766 924Q728 924 703 949T677 1013Q677 1101 766 1101Q783 1101 796 1097Q746 1287 511 1298V777Q670 738 750 652Q854 540 854 376ZM451 792V1298Q350 1288
280 1219Q206 1147 206 1047Q206 944 280 876Q345 815 451 792ZM756 319Q756 428 687 505Q621 577 511 600V40Q616 54 686 133T756 319Z" />
<glyph unicode="%" glyph-name="percent" horiz-adv-x="1662" d="M1612 419Q1612 -34 1330 -34Q1050 -34 1050 419Q1050 878 1331 878Q1612 878 1612 419ZM1358 1470Q1358 1458 1341 1433L304 -103Q283 -134 263 -134Q222 -134 222 -93Q222 -80 241 -52L1161 1312Q1055
1242 887 1242Q727 1242 590 1341Q612 1255 612 1119Q612 666 330 666Q50 666 50 1119Q50 1578 331 1578Q480 1578 554 1436Q719 1287 885 1287Q1120 1287 1274 1482Q1297 1511 1317 1511Q1358 1511 1358 1470ZM1493 351V492Q1493 642 1474 709Q1439 839 1330 839Q1222
839 1187 711Q1169 644 1169 495V350Q1169 5 1330 5Q1493 5 1493 351ZM493 1051Q493 1277 494 1254Q489 1386 460 1451Q413 1495 376 1532Q354 1539 330 1539Q222 1539 187 1411Q169 1344 169 1195V1050Q169 705 330 705Q493 705 493 1051Z" />
<glyph unicode="&amp;" glyph-name="ampersand" horiz-adv-x="1593" d="M1498 819Q1373 818 1307 765Q1263 729 1193 610Q1018 312 922 201Q1076 18 1205 18Q1286 18 1352 72Q1430 137 1434 248H1486Q1483 118 1400 37T1197 -45Q1015 -45 836 111Q661 -45 466
-45Q312 -45 204 42T95 262Q95 337 133 398Q157 436 240 522Q352 638 427 721Q343 935 343 1137Q343 1289 434 1383Q515 1466 621 1466Q718 1466 765 1369Q800 1298 800 1202Q800 1066 550 788Q607 638 744 438Q832 309 890 242Q1023 406 1183 688Q1195 724 1195
729Q1195 819 1049 819V883Q1130 877 1299 877Q1387 877 1498 883V819ZM748 1204Q748 1260 733 1314Q702 1421 625 1421Q564 1421 522 1367Q472 1303 472 1184Q472 1019 533 838Q748 1071 748 1204ZM798 150Q720 228 609 389Q514 528 445 674Q347 580 314 523Q265
442 265 328Q265 218 310 132Q369 18 482 18Q650 18 798 150Z" />
<glyph unicode="&apos;" glyph-name="quotesingle" horiz-adv-x="536" d="M428 1283Q428 1272 421 1260L149 788Q139 771 127 771Q108 771 108 783Q108 796 187 1030Q264 1257 281 1301Q297 1339 347 1339Q428 1339 428 1283Z" />
<glyph unicode="(" glyph-name="parenleft" horiz-adv-x="682" d="M574 -332Q574 -350 555 -350Q544 -350 509 -321Q283 -135 186 77Q91 285 91 582Q91 879 186 1087Q283 1299 509 1485Q544 1514 555 1514Q574 1514 574 1496Q574 1488 550 1464Q250 1169 250 582Q250
-5 550 -300Q574 -324 574 -332Z" />
<glyph unicode=")" glyph-name="parenright" horiz-adv-x="682" d="M591 582Q591 285 496 77Q399 -135 173 -321Q138 -350 127 -350Q108 -350 108 -332Q108 -324 132 -300Q432 -5 432 582Q432 1169 132 1464Q108 1488 108 1496Q108 1514 127 1514Q138 1514 173
1485Q399 1299 496 1087Q591 879 591 582Z" />
<glyph unicode="*" glyph-name="asterisk" horiz-adv-x="964" d="M850 973Q850 949 834 930T793 910Q779 910 767 919L509 1101L539 782Q539 733 482 733Q426 733 426 782V787L455 1101L198 919Q185 910 171 910Q148 910 131 929T114 973Q114 1004 141 1016L428
1148L141 1280Q114 1293 114 1324Q114 1347 131 1367T171 1387Q185 1387 198 1378L455 1195L426 1514Q426 1563 482 1563Q539 1563 539 1514V1509L509 1195L767 1378Q779 1387 793 1387Q817 1387 833 1367T850 1324Q850 1293 824 1280L537 1148L824 1016Q850 1004
850 973Z" />
<glyph unicode="+" glyph-name="plus" horiz-adv-x="1591" d="M1421 582Q1421 541 1384 541H837V-5Q837 -44 796 -44Q755 -44 755 -5V541H209Q170 541 170 582Q170 623 209 623H755V1171Q755 1208 796 1208Q837 1208 837 1171V623H1384Q1421 623 1421 582Z" />
<glyph unicode="," glyph-name="comma" horiz-adv-x="512" d="M376 2Q376 -150 292 -285Q223 -395 189 -395Q169 -395 169 -373Q169 -365 183 -350Q331 -193 331 2Q331 16 327 38Q294 0 245 0Q200 0 168 32T136 109Q136 153 168 185T245 217Q316 217 351 140Q376
83 376 2Z" />
<glyph unicode="-" glyph-name="hyphen" horiz-adv-x="768" d="M673 582Q673 541 636 541H134Q95 541 95 582Q95 623 134 623H636Q673 623 673 582Z" />
<glyph unicode="." glyph-name="period" horiz-adv-x="512" d="M365 109Q365 64 333 32T256 0Q211 0 179 32T147 109Q147 153 179 185T256 217Q301 217 333 185T365 109Z" />
<glyph unicode="/" glyph-name="slash" horiz-adv-x="569" d="M569 1475Q569 1469 567 1462L79 -326Q72 -352 39 -352Q0 -352 0 -311Q0 -305 2 -298L490 1490Q497 1516 530 1516Q569 1516 569 1475Z" />
<glyph unicode="0" glyph-name="zero" horiz-adv-x="1024" d="M950 666Q950 357 872 197Q754 -45 510 -45Q284 -45 166 164Q73 328 73 666Q73 981 149 1141Q266 1388 512 1388Q750 1388 867 1156Q950 991 950 666ZM777 564V824Q777 1040 740 1153Q679 1343 510
1343Q342 1343 281 1152Q244 1038 244 823Q244 782 245 701Q245 620 245 580Q245 341 278 220Q337 0 510 0Q682 0 743 212Q777 332 777 564Z" />
<glyph unicode="1" glyph-name="one" horiz-adv-x="1024" d="M856 0Q785 6 720 6H316Q252 6 181 0V64Q193 64 218 63T257 62Q410 62 432 105Q441 123 441 158V1245Q332 1191 169 1191V1255Q419 1255 548 1388H558Q587 1388 593 1374Q596 1368 596 1335V154Q596
121 604 104Q619 71 721 64Q735 63 856 64V0Z" />
<glyph unicode="2" glyph-name="two" horiz-adv-x="1024" d="M927 362L870 0H96V18Q96 51 120 78L520 523Q738 766 738 984Q738 1123 669 1218Q593 1324 459 1324Q362 1324 286 1265T177 1112Q184 1114 194 1114Q315 1114 315 1005Q315 959 284 927T207 895Q96
895 96 1011Q96 1168 212 1278T486 1388Q671 1388 796 1280Q927 1166 927 984Q927 866 850 756Q806 693 685 575L257 160H673Q809 160 829 176T875 362H927Z" />
<glyph unicode="3" glyph-name="three" horiz-adv-x="1024" d="M944 356Q944 184 807 66Q676 -45 501 -45Q343 -45 219 37Q79 130 79 281Q79 334 111 368T196 402Q246 402 279 369T313 285Q313 234 279 202T194 170Q184 170 174 171Q220 94 313 51Q398 12 494
12Q619 12 681 128Q729 219 729 356Q729 501 678 590Q615 703 481 703H373Q340 703 340 726Q340 748 388 754Q421 755 453 757Q577 765 638 865Q696 959 696 1103Q696 1205 648 1268Q595 1338 496 1338Q302 1338 218 1208Q347 1210 347 1103Q347 1057 318 1027T242
997Q194 997 165 1026T135 1104Q135 1236 258 1317Q366 1388 505 1388Q647 1388 759 1317Q889 1235 889 1101Q889 975 802 872Q721 775 596 734Q741 705 839 605Q944 498 944 356Z" />
<glyph unicode="4" glyph-name="four" horiz-adv-x="1024" d="M973 345H765V149Q765 119 774 101Q793 63 968 64V0Q885 6 826 6H541Q485 6 402 0V64Q449 63 466 63Q576 63 596 101Q605 118 605 149V345H50V409L690 1387Q706 1412 732 1412Q757 1412 763 1395Q765
1389 765 1357V409H973V345ZM617 409V1186L108 409H617Z" />
<glyph unicode="5" glyph-name="five" horiz-adv-x="1024" d="M927 420Q927 230 795 93T473 -45Q318 -45 207 68T96 336Q96 447 197 447Q241 447 271 418T302 345Q302 301 272 272T197 242Q179 242 163 247Q192 146 278 79T469 12Q614 12 693 148Q742 233 742
434Q742 612 705 696Q646 830 527 830Q438 830 367 787Q322 760 277 707Q239 664 231 664Q202 664 202 705V1353Q202 1387 222 1387Q231 1387 248 1381Q414 1321 526 1321Q661 1321 808 1383Q820 1388 826 1388Q846 1388 846 1365Q846 1349 810 1309Q666 1148 444
1148Q358 1148 268 1175V770Q377 876 532 876Q706 876 821 732Q927 599 927 420Z" />
<glyph unicode="6" glyph-name="six" horiz-adv-x="1024" d="M945 425Q945 235 827 98Q703 -45 516 -45Q274 -45 163 202Q80 385 80 660Q80 865 155 1035Q240 1226 400 1322Q511 1388 629 1388Q741 1388 813 1334Q894 1273 894 1165Q894 1121 868 1092T798 1063Q757
1063 730 1091T702 1160Q702 1258 816 1253Q759 1338 633 1338Q552 1338 478 1291Q268 1158 268 684Q352 890 528 890Q711 890 831 747Q945 612 945 425ZM758 371V475Q758 635 720 713Q657 842 527 842Q397 842 328 715Q271 612 271 471Q271 265 309 169Q335 102
389 59Q448 12 516 12Q656 12 722 148Q758 222 758 371Z" />
<glyph unicode="7" glyph-name="seven" horiz-adv-x="1024" d="M959 1328Q959 1296 940 1269L657 874Q563 743 529 518Q506 367 506 69Q506 -45 410 -45Q315 -45 315 69Q315 453 571 853Q649 962 803 1182H304Q187 1182 168 1170Q145 1155 116 980H64L133 1410H185Q187
1390 199 1377Q230 1343 452 1343H959V1328Z" />
<glyph unicode="8" glyph-name="eight" horiz-adv-x="1024" d="M944 349Q944 179 810 64Q683 -45 510 -45Q342 -45 217 49Q79 153 79 315Q79 550 380 699Q325 731 226 811Q135 910 135 1041Q135 1190 251 1291Q362 1388 513 1388Q659 1388 768 1307Q889 1218 889
1078Q889 884 636 755Q729 699 745 688Q805 648 842 607Q944 494 944 349ZM797 1078Q797 1190 708 1266Q624 1338 510 1338Q405 1338 321 1284Q226 1222 226 1122Q226 1031 332 954Q362 932 589 786Q797 906 797 1078ZM841 276Q841 352 794 411Q761 452 684 504T427
666Q183 532 183 315Q183 185 284 96Q381 12 513 12Q636 12 733 81Q841 158 841 276Z" />
<glyph unicode="9" glyph-name="nine" horiz-adv-x="1024" d="M944 687Q944 513 899 374Q843 201 724 86Q589 -45 421 -45Q301 -45 223 6Q131 65 131 179Q131 279 226 279Q267 279 295 252T323 183Q323 139 291 111T214 88Q278 12 419 12Q496 12 567 59Q687 138
730 333Q757 453 757 663Q675 454 496 454Q313 454 193 597Q79 733 79 919Q79 1121 212 1258Q338 1388 519 1388Q621 1388 706 1335Q944 1187 944 687ZM753 878Q753 1080 719 1171Q657 1338 519 1338Q381 1338 310 1206Q267 1126 267 959V873Q267 712 304 635Q368
503 499 503Q629 503 698 632Q753 735 753 878Z" />
<glyph unicode=":" glyph-name="colon" horiz-adv-x="546" d="M382 749Q382 704 350 672T273 640Q228 640 196 672T164 749Q164 793 196 825T273 857Q318 857 350 825T382 749ZM382 109Q382 64 350 32T273 0Q228 0 196 32T164 109Q164 153 196 185T273 217Q318
217 350 185T382 109Z" />
<glyph unicode=";" glyph-name="semicolon" horiz-adv-x="546" d="M382 749Q382 705 350 673T273 640Q229 640 197 672T164 749Q164 793 196 825T273 857Q317 857 349 825T382 749ZM404 2Q404 -214 258 -364Q228 -395 217 -395Q197 -395 197 -373Q197 -365 211
-350Q359 -189 359 2Q359 16 355 38Q322 0 273 0Q229 0 197 32T164 109Q164 153 196 185T273 217Q344 217 378 141Q404 83 404 2Z" />
<glyph unicode="&lt;" glyph-name="less" horiz-adv-x="1591" d="M1421 31Q1421 -10 1380 -10Q1372 -10 1366 -7L197 545Q170 558 170 582Q170 606 197 619L1366 1171Q1372 1174 1380 1174Q1421 1174 1421 1133Q1421 1107 1397 1096L307 582L1397 68Q1421 57 1421 31Z" />
<glyph unicode="=" glyph-name="equal" horiz-adv-x="1591" d="M1421 784Q1421 743 1384 743H209Q170 743 170 784Q170 825 209 825H1384Q1421 825 1421 784ZM1421 380Q1421 339 1384 339H209Q170 339 170 380Q170 421 209 421H1384Q1421 421 1421 380Z" />
<glyph unicode="&gt;" glyph-name="greater" horiz-adv-x="1591" d="M1421 582Q1421 558 1394 545L225 -7Q219 -10 211 -10Q170 -10 170 31Q170 57 194 68L1284 582L194 1096Q170 1107 170 1133Q170 1174 211 1174Q219 1174 225 1171L1394 619Q1421 606 1421 582Z" />
<glyph unicode="?" glyph-name="question" horiz-adv-x="909" d="M822 1167Q822 1040 724 967Q454 767 454 510V438Q454 383 427 383Q402 383 402 432V524Q402 791 583 985Q652 1059 652 1180Q652 1275 624 1319Q575 1399 429 1399Q242 1399 161 1260Q275 1260
275 1167Q275 1073 181 1073Q87 1073 87 1171Q87 1278 178 1357Q278 1444 435 1444Q642 1444 743 1350Q822 1277 822 1167ZM536 109Q536 64 504 32T427 0Q382 0 350 32T318 109Q318 153 350 185T427 217Q472 217 504 185T536 109Z" />
<glyph unicode="@" glyph-name="at" horiz-adv-x="1520" d="M1438 425Q1438 268 1378 145Q1303 -12 1162 -12Q1092 -12 1038 40T975 162Q941 77 864 27T695 -24Q567 -24 472 26Q353 88 353 204Q353 383 566 483Q698 545 960 559V577Q960 687 903 765Q839 851 733
851Q580 851 502 753Q547 753 579 727T612 655Q612 613 583 585T512 557Q414 557 414 656Q414 769 523 839Q618 900 738 900Q923 900 1031 781Q1081 726 1097 664Q1108 619 1108 529V162Q1108 122 1127 91Q1149 54 1186 54Q1273 54 1320 201Q1353 306 1353 417Q1353
696 1200 869Q1040 1050 764 1050Q524 1050 341 854Q162 662 162 420Q162 131 343 -44T814 -219Q1036 -219 1300 -96Q1311 -91 1319 -91Q1358 -91 1358 -133Q1358 -154 1336 -168Q1239 -228 1084 -265Q940 -299 814 -299Q491 -299 288 -102Q82 98 82 420Q82 695
284 911Q491 1130 764 1130Q1068 1130 1255 927Q1438 730 1438 425ZM960 300V514Q789 508 669 443Q517 360 517 207Q517 129 574 77T709 24Q820 24 892 108Q960 187 960 300Z" />
<glyph unicode="A" glyph-name="A" horiz-adv-x="1484" d="M1417 0Q1290 6 1062 6Q949 6 875 0V61Q1037 60 1037 120Q1037 149 990 279Q959 363 928 448H441Q413 375 385 302Q346 195 346 162Q346 111 398 84Q440 61 495 61V0Q306 6 267 6Q205 6 68 0V61Q242 63
287 194L696 1371Q710 1411 742 1411Q774 1411 788 1371L1213 140Q1234 79 1297 65Q1322 59 1417 61V0ZM906 510L684 1151L464 510H906Z" />
<glyph unicode="B" glyph-name="B" horiz-adv-x="1346" d="M1278 360Q1278 199 1136 94Q1007 0 840 0H68V61Q130 59 131 59Q244 59 265 104Q270 115 270 146V1197Q270 1228 265 1239Q243 1289 68 1281V1343H788Q949 1343 1078 1260Q1226 1165 1226 1013Q1226 893
1120 804Q1029 727 900 702Q1047 686 1156 598Q1278 500 1278 360ZM1034 1013Q1034 1126 961 1203T775 1281H520Q467 1281 453 1270Q434 1255 434 1202V721H720Q849 721 940 801Q1034 885 1034 1013ZM1082 362Q1082 489 1008 580Q929 677 805 677H434V140Q434 87
453 72Q467 61 520 61H777Q906 61 994 147T1082 362Z" />
<glyph unicode="C" glyph-name="C" horiz-adv-x="1335" d="M1267 854Q1267 828 1236 828Q1209 828 1203 860Q1191 920 1156 1038Q1105 1165 1009 1243Q905 1328 775 1328Q671 1328 568 1278Q270 1133 270 672Q270 196 592 58Q688 17 777 17Q917 17 1033 102T1192
320Q1209 372 1219 460Q1223 493 1242 493Q1266 493 1266 458Q1266 253 1112 105T752 -43Q464 -43 264 172Q68 383 68 673Q68 962 264 1174Q465 1390 752 1390Q945 1390 1115 1221L1214 1365Q1231 1390 1245 1390Q1267 1390 1267 1357V854Z" />
<glyph unicode="D" glyph-name="D" horiz-adv-x="1459" d="M1392 662Q1392 398 1224 204Q1048 0 788 0H68V61Q136 59 130 59Q238 59 260 90Q270 104 270 142V1202Q270 1238 260 1252Q237 1285 68 1281V1343H788Q1051 1343 1226 1130Q1392 930 1392 662ZM1195 662Q1195
954 1092 1099Q963 1281 733 1281H526Q473 1281 459 1270Q439 1255 439 1202V140Q439 87 459 72Q474 61 526 61H735Q960 61 1085 229Q1195 377 1195 662Z" />
<glyph unicode="E" glyph-name="E" horiz-adv-x="1354" d="M1287 508L1203 0H68V61Q115 60 121 60Q246 60 263 98Q270 114 270 146V1199Q270 1229 263 1246Q246 1287 68 1281V1343H1176L1232 901H1183Q1159 1119 1088 1195Q1008 1281 795 1281H532Q478 1281 463
1269Q444 1254 444 1202V728H622Q756 728 798 777Q835 821 835 957H886V436H835Q835 572 797 616Q755 666 622 666H444V140Q444 88 463 73Q478 61 532 61H805Q1041 61 1131 172Q1198 256 1238 508H1287Z" />
<glyph unicode="F" glyph-name="F" horiz-adv-x="1271" d="M1203 901H1154Q1130 1118 1065 1192Q988 1281 779 1281H527Q482 1281 466 1271Q444 1258 444 1202V701H614Q746 701 788 752Q824 797 824 932H872V410H824Q824 546 788 590Q746 641 614 641H444V144Q444
117 451 100Q469 57 697 61V0Q623 6 562 6H189Q140 6 68 0V61H143Q207 61 231 71Q270 89 270 144V1200Q270 1225 264 1242Q249 1285 68 1281V1343H1149L1203 901Z" />
<glyph unicode="G" glyph-name="G" horiz-adv-x="1472" d="M1405 478Q1325 478 1308 472Q1268 457 1268 391V31Q1268 2 1252 2Q1210 2 1125 124Q1028 -43 756 -43Q466 -43 265 171Q68 381 68 673Q68 962 264 1174Q465 1390 752 1390Q950 1390 1117 1221L1216 1365Q1233
1390 1247 1390Q1268 1390 1268 1357L1269 854Q1269 828 1238 828Q1211 828 1205 860Q1193 920 1159 1037Q1108 1165 1012 1243Q907 1328 777 1328Q673 1328 579 1282Q270 1130 270 673Q270 217 582 64Q678 17 788 17Q912 17 996 73Q1094 138 1094 256V382Q1094
422 1085 438Q1062 478 910 478H847V537Q912 532 1041 532Q1225 532 1405 537V478Z" />
<glyph unicode="H" glyph-name="H" horiz-adv-x="1480" d="M1413 0Q1342 6 1300 6H939Q903 6 832 0V61Q841 61 861 60Q879 60 889 60Q1008 60 1026 96Q1034 112 1034 141V671H444V141Q444 112 452 96Q470 60 649 61V0Q578 6 534 6H176Q139 6 68 0V61Q77 61 96
60Q114 60 124 60Q245 60 263 96Q270 110 270 141V1205Q270 1236 263 1250Q246 1284 114 1284H68V1346Q138 1340 180 1340H534Q579 1340 649 1346V1284Q640 1284 622 1285T594 1286Q471 1286 452 1250Q444 1234 444 1205V731H1034V1205Q1034 1234 1026 1250Q1009
1284 878 1284H832V1346Q902 1340 944 1340H1300Q1343 1340 1413 1346V1284Q1404 1284 1386 1285T1357 1286Q1235 1286 1217 1250Q1209 1234 1209 1205V141Q1209 112 1217 96Q1235 60 1413 61V0Z" />
<glyph unicode="I" glyph-name="I" horiz-adv-x="736" d="M670 0Q599 6 553 6H180Q139 6 68 0V61Q76 61 97 60Q115 60 125 60Q253 60 272 96Q281 113 281 145V1201Q281 1233 272 1250Q254 1284 119 1284H68V1346Q139 1340 183 1340H559Q600 1340 670 1346V1284Q660
1284 641 1285T611 1286Q536 1286 508 1277Q455 1259 455 1201V144Q455 117 466 96Q482 67 560 61Q562 61 670 61V0Z" />
<glyph unicode="J" glyph-name="J" horiz-adv-x="970" d="M903 1284Q859 1286 861 1286Q801 1286 781 1275Q751 1258 751 1203L752 284Q752 143 636 47Q527 -43 383 -43Q262 -43 169 27Q68 103 68 220Q68 269 98 301T178 334Q225 334 256 303T287 224Q287 112
162 114Q233 0 379 0Q478 0 535 101Q582 184 582 291V1201Q582 1230 573 1248Q553 1287 318 1284V1346Q396 1340 479 1340H700Q773 1340 903 1346V1284Z" />
<glyph unicode="K" glyph-name="K" horiz-adv-x="1519" d="M1451 0Q1324 6 1127 6Q1015 6 944 0V61Q1061 60 1061 120Q1061 142 1030 188L673 716L444 498V139Q444 111 453 94Q471 60 649 61V0Q578 6 529 6H182Q139 6 68 0V61Q76 61 96 60Q113 60 123 60Q248 60
264 100Q270 115 270 144V1210Q270 1237 263 1251Q246 1286 68 1284V1346Q138 1340 187 1340H529Q579 1340 649 1346V1284Q640 1284 621 1285T592 1286Q466 1286 450 1246Q444 1231 444 1202V566L1062 1154Q1098 1188 1098 1221Q1098 1282 1007 1284V1346Q1076
1340 1187 1340Q1373 1340 1426 1346V1284Q1266 1282 1145 1166L789 826L1245 156Q1287 94 1334 75Q1370 61 1451 61V0Z" />
<glyph unicode="L" glyph-name="L" horiz-adv-x="1216" d="M1149 508L1094 0H68V61Q76 61 95 60Q111 60 121 60Q245 60 263 95Q270 109 270 141V1205Q270 1237 263 1251Q246 1285 68 1284V1346Q139 1340 194 1340H577Q624 1340 697 1346V1284Q686 1284 664 1285T631
1286Q475 1286 454 1250Q444 1233 444 1202V140Q444 88 464 73Q479 61 530 61H703Q915 61 1006 184Q1076 280 1100 508H1149Z" />
<glyph unicode="M" glyph-name="M" horiz-adv-x="1793" d="M1726 0Q1651 6 1607 6H1273Q1235 6 1160 0V61H1236Q1299 61 1323 71Q1363 88 1363 141V1281H1361L878 36Q864 0 842 0Q820 0 803 43L327 1265H325V201Q325 60 528 61V0Q319 6 298 6Q279 6 68 0V61Q270
60 270 201V1204Q270 1226 264 1242Q252 1274 175 1281Q164 1282 68 1281V1343H409Q454 1343 470 1301L898 199L1328 1307Q1342 1343 1377 1343H1726V1281Q1717 1281 1699 1282T1670 1283Q1545 1283 1529 1242Q1523 1227 1523 1197V139Q1523 113 1531 96Q1548 60
1726 61V0Z" />
<glyph unicode="N" glyph-name="N" horiz-adv-x="1480" d="M1413 1284Q1209 1285 1209 1139V32Q1209 0 1183 0Q1167 0 1149 26L344 1204Q332 1221 325 1229V201Q325 60 528 61V0Q320 6 298 6Q276 6 68 0V61Q270 60 270 201V1233Q270 1262 262 1268T222 1277Q177
1281 68 1281V1343H410Q440 1343 458 1317L1154 298V1145Q1154 1284 951 1284V1346Q1156 1340 1183 1340Q1209 1340 1413 1346V1284Z" />
<glyph unicode="O" glyph-name="O" horiz-adv-x="1445" d="M1377 669Q1377 384 1194 175Q1002 -43 722 -43Q442 -43 251 176Q68 385 68 669Q68 954 250 1167Q441 1390 722 1390Q1004 1390 1195 1167Q1377 955 1377 669ZM1175 696Q1175 1134 915 1286Q823 1340
722 1340Q623 1340 532 1287Q270 1134 270 696Q270 227 535 64Q626 8 724 8Q814 8 908 63Q1175 219 1175 696Z" />
<glyph unicode="P" glyph-name="P" horiz-adv-x="1295" d="M1228 977Q1228 819 1079 714Q944 619 779 619H444V146Q444 114 451 98Q469 59 649 61V0Q577 6 516 6H190Q140 6 68 0V61Q141 60 123 60Q245 60 263 98Q270 113 270 146V1197Q270 1229 263 1245Q245 1286
68 1281V1343H763Q937 1343 1074 1249Q1228 1143 1228 977ZM1024 977Q1024 1138 949 1209T711 1281H525Q472 1281 458 1269Q439 1255 439 1202V670H711Q1024 670 1024 977Z" />
<glyph unicode="Q" glyph-name="Q" horiz-adv-x="1457" d="M1390 -19Q1390 -154 1338 -255Q1273 -382 1151 -382Q1025 -382 966 -252Q932 -179 910 -13Q815 -43 724 -43Q443 -43 252 175Q68 385 68 669Q68 954 250 1167Q441 1390 722 1390Q1004 1390 1195 1167Q1377
955 1377 669Q1377 460 1272 282Q1163 97 978 13Q1040 -179 1166 -179Q1304 -179 1346 -13Q1355 22 1367 22Q1390 22 1390 -19ZM1180 669Q1180 1124 918 1282Q822 1340 722 1340Q625 1340 530 1284Q263 1127 263 669Q263 456 332 294Q418 95 591 31Q563 76 563
125Q563 193 610 242T726 291Q870 291 947 83Q1180 255 1180 669ZM898 52Q862 248 726 248Q676 248 642 212T607 125Q607 74 640 40T724 6Q816 6 898 52Z" />
<glyph unicode="R" glyph-name="R" horiz-adv-x="1508" d="M1440 173Q1440 87 1391 25Q1338 -43 1254 -43Q1094 -43 1006 38Q924 113 924 275Q924 288 925 315Q925 342 925 355Q925 513 849 585Q779 652 666 652H439V141Q439 112 446 95Q461 58 643 61V0Q569 6
500 6H211Q142 6 68 0V61Q74 61 94 60Q111 60 121 60Q246 60 263 95Q270 110 270 141V1196Q270 1223 264 1241Q249 1285 68 1281V1343H686Q869 1343 1019 1259Q1199 1159 1199 992Q1199 870 1084 779Q990 704 855 671Q1020 614 1079 489Q1104 437 1119 328Q1131
243 1143 158Q1174 0 1261 0Q1362 0 1392 175Q1397 206 1416 206Q1440 206 1440 173ZM997 992Q997 1188 854 1248Q770 1283 540 1283Q489 1283 471 1276Q439 1262 439 1219V696H658Q997 696 997 992Z" />
<glyph unicode="S" glyph-name="S" horiz-adv-x="1007" d="M940 367Q940 199 831 80Q719 -43 552 -43Q316 -43 190 94Q166 57 118 -17Q102 -43 88 -43Q68 -43 68 -14V417Q68 446 92 446Q122 446 122 374Q122 231 239 124T550 17Q664 17 739 101T814 300Q814 402
752 482Q696 554 585 582Q497 599 325 647Q209 689 139 787T68 1008Q68 1168 179 1279T450 1390Q624 1390 766 1251L835 1363Q852 1390 864 1390Q888 1390 888 1357V928Q888 900 860 900Q842 900 837 922Q830 963 812 1044Q731 1334 452 1334Q343 1334 269 1260T194
1076Q194 887 393 826Q478 807 645 764Q781 724 860 617T940 367Z" />
<glyph unicode="T" glyph-name="T" horiz-adv-x="1413" d="M1346 901H1297Q1275 1163 1209 1222T878 1282Q832 1282 816 1273Q793 1259 793 1217V146Q793 121 803 99Q822 58 1080 61V0Q996 6 926 6H487Q416 6 332 0V61Q341 61 370 60Q394 60 408 60Q592 60 610
99Q618 116 618 146V1218Q618 1261 589 1274Q572 1282 523 1282Q267 1282 202 1220T116 901H68L104 1343H1310L1346 901Z" />
<glyph unicode="U" glyph-name="U" horiz-adv-x="1480" d="M1413 1284Q1245 1285 1217 1199Q1209 1175 1209 1131V463Q1209 260 1091 114Q964 -43 766 -43Q562 -43 416 100T270 448V1208Q270 1238 263 1251Q243 1289 68 1284V1346Q141 1340 224 1340H493Q577 1340
649 1346V1284Q601 1285 589 1285Q471 1285 453 1251Q444 1234 444 1200V441Q444 143 636 48Q698 17 770 17Q940 17 1049 153Q1149 279 1149 454V1139Q1149 1228 1086 1261Q1041 1284 946 1284V1346Q1151 1340 1180 1340Q1209 1340 1413 1346V1284Z" />
<glyph unicode="V" glyph-name="V" horiz-adv-x="1536" d="M1468 1284Q1304 1283 1254 1152L814 -6Q800 -43 766 -43Q735 -43 719 0L262 1209Q240 1266 181 1280Q154 1287 68 1284V1346Q282 1340 412 1340Q527 1340 600 1346V1284Q438 1285 438 1228Q438 1198
614 743Q720 470 826 197L1187 1147Q1196 1171 1196 1187Q1196 1281 1053 1284V1346Q1207 1340 1276 1340Q1375 1340 1468 1346V1284Z" />
<glyph unicode="W" glyph-name="W" horiz-adv-x="2087" d="M2019 1284Q1867 1284 1824 1152L1446 -4Q1433 -43 1408 -43Q1382 -43 1370 -6L1042 997L719 -4Q706 -43 678 -43Q653 -43 641 -6L246 1201Q240 1220 223 1254Q198 1287 68 1284V1346Q310 1340 401 1340Q515
1340 588 1346V1284Q422 1285 422 1226Q422 1211 426 1199L742 231L1017 1076Q1000 1139 982 1203Q966 1251 932 1267Q894 1284 796 1284V1346Q1038 1340 1129 1340Q1243 1340 1316 1346V1284Q1151 1285 1151 1226Q1151 1211 1156 1196L1472 231L1768 1141Q1778
1172 1778 1180Q1778 1233 1715 1261Q1667 1283 1606 1284V1346Q1761 1340 1840 1340Q1929 1340 2019 1346V1284Z" />
<glyph unicode="X" glyph-name="X" d="M1450 0Q1323 6 1090 6Q979 6 907 0V61Q1035 66 1035 120Q1035 130 715 613L434 199Q415 171 415 151Q415 108 457 83Q492 62 538 61V0Q464 6 347 6Q282 6 68 0V61Q264 61 353 192L676 669L314 1216Q280 1267 215 1280Q183
1286 93 1284V1346Q205 1340 391 1340Q566 1340 637 1346V1284Q509 1279 509 1226Q509 1213 777 816L1002 1149Q1019 1174 1019 1195Q1019 1238 978 1262Q944 1283 898 1284V1346Q979 1340 1120 1340Q1144 1340 1368 1346V1284Q1170 1282 1083 1156L812 761L1228
132Q1263 79 1327 66Q1359 59 1450 61V0Z" />
<glyph unicode="Y" glyph-name="Y" horiz-adv-x="1566" d="M1499 1284Q1326 1284 1247 1156L866 537V149Q866 115 876 96Q891 67 966 61Q968 61 1070 61V0Q997 6 943 6H623Q568 6 495 0V61Q503 61 521 60Q538 60 548 60Q672 60 690 96Q697 110 697 139V537L284
1212Q250 1268 189 1280Q168 1284 68 1284V1346Q194 1340 427 1340Q541 1340 614 1346V1284H590Q478 1284 478 1236Q478 1222 491 1201L847 620L1172 1149Q1193 1183 1193 1207Q1193 1284 1080 1284V1346Q1235 1340 1308 1340Q1406 1340 1499 1346V1284Z" />
<glyph unicode="Z" glyph-name="Z" horiz-adv-x="1128" d="M1061 526L1026 0H101Q68 0 68 33Q68 54 81 74L847 1281H537Q331 1281 243 1194T143 900H92L114 1343H1014Q1048 1343 1048 1311Q1048 1295 1034 1273L270 68H594Q833 68 923 182Q999 277 1012 526H1061Z" />
<glyph unicode="[" glyph-name="bracketleft" horiz-adv-x="682" d="M571 -309Q571 -350 503 -350H112V1514H503Q571 1514 571 1474Q571 1433 503 1433H194V-268H503Q571 -268 571 -309Z" />
<glyph unicode="\" glyph-name="backslash" horiz-adv-x="569" d="M569 -311Q569 -352 530 -352Q497 -352 490 -326L2 1462Q0 1469 0 1475Q0 1516 39 1516Q72 1516 79 1490L567 -298Q569 -305 569 -311Z" />
<glyph unicode="]" glyph-name="bracketright" horiz-adv-x="682" d="M570 -350H179Q111 -350 111 -309Q111 -268 179 -268H488V1433H179Q111 1433 111 1474Q111 1514 179 1514H570V-350Z" />
<glyph unicode="^" glyph-name="asciicircum" horiz-adv-x="906" d="M796 1020Q796 990 775 990Q770 990 768 992Q569 1049 453 1257Q350 1071 139 992Q136 990 131 990Q110 990 110 1026Q110 1042 144 1058Q167 1068 191 1078Q320 1142 399 1282Q410 1305 435
1349Q441 1360 453 1360Q466 1360 473 1349Q484 1326 507 1281Q584 1143 715 1078Q740 1067 765 1057Q796 1042 796 1020Z" />
<glyph unicode="_" glyph-name="underscore" horiz-adv-x="1024" d="M1024 -442H0V-356H1024V-442Z" />
<glyph unicode="`" glyph-name="grave" horiz-adv-x="536" d="M428 783Q428 771 409 771Q397 771 386 788L115 1260Q108 1272 108 1283Q108 1339 189 1339Q239 1339 255 1301Q272 1257 349 1030Q428 796 428 783Z" />
<glyph unicode="a" glyph-name="a" horiz-adv-x="1070" d="M1018 190Q1018 107 972 50Q923 -12 842 -12Q773 -12 726 42Q682 91 675 162Q640 77 564 27T395 -24Q267 -24 172 26Q53 88 53 204Q53 383 266 483Q397 544 660 559V637Q660 747 603 825Q539 911 433
911Q279 911 202 813Q248 813 280 787T312 715Q312 673 284 645T212 617Q114 617 114 716Q114 829 223 899Q318 960 438 960Q621 960 731 841Q781 787 797 724Q808 679 808 589V162Q808 122 827 91Q849 54 886 54Q965 54 965 229Q965 257 963 309H1018V190ZM660
300V514Q489 508 369 443Q217 361 217 207Q217 129 273 77T409 24Q520 24 592 108Q660 187 660 300Z" />
<glyph unicode="b" glyph-name="b" horiz-adv-x="1160" d="M1107 461Q1107 262 968 119T631 -24Q452 -24 350 133Q326 87 273 0H220V1277Q220 1365 173 1386Q148 1398 53 1395V1462L360 1485V807Q481 946 655 946Q846 946 979 798Q1107 655 1107 461ZM929 464Q929
663 869 761Q784 899 644 899Q553 899 465 838Q367 771 367 685V243Q367 198 397 154Q486 24 622 24Q776 24 865 162Q929 261 929 464Z" />
<glyph unicode="c" glyph-name="c" horiz-adv-x="920" d="M868 254Q868 232 841 179Q737 -24 512 -24Q318 -24 184 123Q53 265 53 461Q53 662 183 808Q317 960 515 960Q636 960 730 906Q843 842 843 730Q843 630 746 630Q704 630 676 658T647 728Q647 822 747
827Q668 905 518 905Q458 905 398 871Q230 777 230 466Q230 160 408 64Q471 30 531 30Q644 30 712 94Q752 131 790 212Q820 276 839 276Q868 276 868 254Z" />
<glyph unicode="d" glyph-name="d" horiz-adv-x="1159" d="M1106 0L793 -24V118Q682 -24 506 -24Q314 -24 182 123Q53 265 53 459Q53 657 192 801T529 946Q692 946 799 813V1277Q799 1365 752 1386Q727 1398 632 1395V1462L940 1485V185Q940 97 986 75Q1011 63
1106 66V0ZM793 253V702Q793 734 769 770Q682 899 538 899Q384 899 295 761Q230 661 230 458Q230 261 291 162Q376 24 515 24Q608 24 697 91Q793 163 793 253Z" />
<glyph unicode="e" glyph-name="e" horiz-adv-x="933" d="M881 254Q881 224 846 164Q736 -24 524 -24Q326 -24 188 125Q53 271 53 471Q53 665 177 809Q307 960 498 960Q678 960 782 837Q881 722 881 539Q881 484 828 484H230Q230 277 294 174Q384 30 536 30Q734
30 826 251Q838 280 854 280Q881 280 881 254ZM740 549Q738 689 688 787Q623 911 498 911Q457 911 408 888Q246 811 233 549H740Z" />
<glyph unicode="f" glyph-name="f" horiz-adv-x="798" d="M746 1359Q746 1265 651 1265Q612 1265 586 1291T559 1356Q559 1425 623 1447Q590 1462 553 1462Q457 1462 402 1360Q356 1276 356 1171V923H607V855H361V151Q361 130 368 110Q384 64 569 66V0Q488 6 424
6H239Q203 6 146 4Q72 0 54 0V66Q82 65 100 65Q164 65 187 77Q221 95 221 153V855H53V923H221V1169Q221 1310 316 1409T553 1508Q625 1508 682 1470Q746 1427 746 1359Z" />
<glyph unicode="g" glyph-name="g" horiz-adv-x="1082" d="M1030 865Q1030 801 968 801Q906 801 906 862Q906 906 940 921Q931 923 920 923Q816 923 727 839Q814 758 814 632Q814 498 706 406Q604 318 468 318Q350 318 256 385Q220 342 220 285Q220 136 403 136Q422
136 459 137T515 139Q757 139 860 80Q1002 -1 1002 -164Q1002 -304 825 -381Q689 -440 526 -440Q367 -440 230 -381Q53 -305 53 -169Q53 -92 115 -32Q170 21 250 44Q156 106 156 236Q156 334 222 412Q121 497 121 633Q121 767 229 859Q332 946 468 946Q597 946
695 869Q798 970 922 970Q967 970 998 940T1030 865ZM655 633Q655 897 468 897Q366 897 315 810Q281 752 281 632Q281 368 468 368Q569 368 620 454Q655 513 655 633ZM888 -169Q888 14 531 14H340Q268 14 216 -41T163 -169Q163 -278 297 -341Q405 -392 528 -392Q650
-392 756 -341Q888 -277 888 -169Z" />
<glyph unicode="h" glyph-name="h" horiz-adv-x="1181" d="M1129 0Q929 6 887 6Q853 6 647 0V66Q677 65 695 65Q758 65 781 77Q814 96 814 153V672Q814 899 656 899Q526 899 443 790Q367 690 367 556V156Q367 117 377 98Q398 59 532 66V0Q332 6 293 6Q259 6 53
0V66Q83 65 100 65Q168 65 190 79Q219 98 219 162V1277Q219 1364 175 1385Q151 1397 53 1395V1462L359 1485V741H361Q402 834 486 890T670 946Q962 946 962 632V130Q962 58 1129 66V0Z" />
<glyph unicode="i" glyph-name="i" horiz-adv-x="562" d="M369 1276Q369 1228 336 1195T254 1161Q208 1161 175 1195T142 1276Q142 1321 175 1355T254 1389Q302 1389 335 1356T369 1276ZM510 0Q308 6 287 6Q246 6 53 0V66Q104 65 97 65Q163 65 186 78Q219 96 219
157V739Q219 824 178 844Q155 856 61 855V923L359 946V144Q359 85 410 71Q434 64 510 66V0Z" />
<glyph unicode="j" glyph-name="j" horiz-adv-x="588" d="M386 1276Q386 1228 353 1195T272 1161Q226 1161 193 1195T160 1276Q160 1321 193 1355T272 1389Q320 1389 353 1356T386 1276ZM385 -107Q385 -240 307 -336Q223 -439 93 -439Q3 -439 -66 -399Q-149 -351
-149 -267Q-149 -225 -122 -197T-52 -169Q-10 -169 18 -197T47 -267Q47 -343 -27 -363Q31 -392 87 -392Q245 -392 245 -111V750Q245 789 236 810Q214 860 61 855V923L385 946V-107Z" />
<glyph unicode="k" glyph-name="k" horiz-adv-x="1139" d="M1086 0Q998 6 900 6Q838 6 670 0V66Q746 64 746 115Q746 153 491 500L355 384V162Q355 111 366 95Q379 74 427 68Q450 65 522 66V0Q401 6 286 6Q249 6 53 0V66Q63 66 87 65Q109 65 121 65Q220 65 220
162V1277Q220 1364 175 1385Q152 1396 53 1395V1462L360 1485V458L662 719Q709 760 709 803Q709 853 648 855V923Q764 915 896 915Q960 915 1037 923V855Q904 849 767 741Q593 604 593 585Q593 583 607 563L880 180Q928 113 965 91Q1009 65 1086 66V0Z" />
<glyph unicode="l" glyph-name="l" horiz-adv-x="579" d="M527 0Q307 6 289 6Q252 6 53 0V66Q63 66 86 65T121 64Q219 64 219 162V1277Q219 1364 175 1385Q152 1396 53 1395V1462L359 1485V162Q359 112 371 95Q386 74 436 68Q458 65 527 66V0Z" />
<glyph unicode="m" glyph-name="m" horiz-adv-x="1775" d="M1723 0Q1525 6 1485 6Q1445 6 1241 0V66Q1267 65 1284 65Q1355 65 1376 78Q1408 97 1408 162V661Q1408 899 1251 899Q1121 899 1038 790Q962 690 962 556V155Q962 116 974 95Q995 60 1129 66V0Q931 6
887 6Q852 6 647 0V66Q673 65 690 65Q761 65 782 78Q814 97 814 162V661Q814 899 656 899Q526 899 443 790Q367 690 367 556V159Q367 112 378 95Q400 59 532 66V0Q334 6 293 6Q258 6 53 0V66Q79 65 96 65Q166 65 188 78Q219 97 219 162V736Q219 823 175 845Q150
857 53 855V923L354 946V721Q455 946 670 946Q921 946 954 736Q997 831 1080 888T1266 946Q1424 946 1494 861Q1557 784 1557 622Q1557 608 1557 580Q1556 553 1556 539V130Q1556 57 1723 66V0Z" />
<glyph unicode="n" glyph-name="n" horiz-adv-x="1181" d="M1129 0Q929 6 887 6Q853 6 647 0V66Q676 65 695 65Q758 65 781 77Q814 96 814 153V672Q814 899 656 899Q526 899 443 790Q367 690 367 556V156Q367 118 377 98Q397 59 532 66V0Q333 6 293 6Q259 6 53
0V66Q82 65 100 65Q168 65 190 79Q219 98 219 162V736Q219 823 175 845Q150 857 53 855V923L354 946V721Q455 946 670 946Q962 946 962 630V130Q962 58 1129 66V0Z" />
<glyph unicode="o" glyph-name="o" horiz-adv-x="1054" d="M1002 458Q1002 259 863 118T526 -24Q330 -24 192 118T53 458Q53 659 189 808Q329 960 528 960Q726 960 866 807Q1002 658 1002 458ZM823 476Q823 681 767 773Q683 911 526 911Q362 911 281 768Q230 678
230 476Q230 269 285 174Q368 30 528 30Q695 30 776 188Q823 280 823 476Z" />
<glyph unicode="p" glyph-name="p" horiz-adv-x="1160" d="M1107 461Q1107 262 968 119T631 -24Q553 -24 477 16Q392 60 367 127V-261Q367 -303 378 -320Q401 -355 533 -348V-414Q364 -409 292 -409Q219 -409 53 -414V-348Q90 -350 100 -350Q169 -350 190 -336Q220
-317 220 -253V749Q220 800 212 816Q200 841 156 852Q133 857 53 855V923L360 946V805Q487 946 660 946Q849 946 981 797Q1107 653 1107 461ZM929 461Q929 612 862 739Q781 893 644 893Q465 893 367 721V243Q367 197 397 154Q488 24 622 24Q767 24 855 176Q929
304 929 461Z" />
<glyph unicode="q" glyph-name="q" horiz-adv-x="1159" d="M1106 -414Q940 -409 866 -409Q786 -409 624 -414V-348Q661 -350 672 -350Q741 -350 763 -336Q793 -317 793 -253V130Q678 -24 509 -24Q317 -24 183 123Q53 265 53 459Q53 656 191 801T525 946Q617 946
696 891Q772 838 812 752L893 946H940V-253Q940 -299 952 -320Q972 -355 1106 -348V-414ZM799 291V592Q799 704 726 795Q647 893 538 893Q442 893 363 816Q294 749 260 649Q230 562 230 459Q230 307 296 179Q377 24 515 24Q619 24 709 106T799 291Z" />
<glyph unicode="r" glyph-name="r" horiz-adv-x="823" d="M771 815Q771 775 746 748T680 721Q641 721 615 747T588 813Q588 877 636 897Q630 899 622 899Q486 899 415 759Q360 648 360 497V151Q360 89 416 73Q439 66 524 66H568V0Q487 6 421 6H247Q209 6 150 4Q70
0 53 0V66Q64 66 86 65T120 64Q220 64 220 162V736Q220 823 175 845Q151 856 53 855V923L350 946V711Q426 946 612 946Q672 946 719 911Q771 873 771 815Z" />
<glyph unicode="s" glyph-name="s" horiz-adv-x="804" d="M752 274Q752 128 650 48Q558 -24 408 -24Q268 -24 171 69Q94 -24 75 -24Q53 -24 53 9V331Q53 363 80 363Q101 363 110 328Q147 182 202 114Q275 24 408 24Q511 24 575 69Q649 121 649 219Q649 366 426
414Q298 442 278 447Q196 472 144 514Q53 589 53 697Q53 831 161 901Q253 960 394 960Q512 960 595 899Q655 960 675 960Q699 960 699 927V673Q699 638 670 638Q647 638 639 681Q636 711 633 741Q617 828 549 875Q486 919 394 919Q300 919 236 885Q155 842 155
756Q155 670 249 626Q297 604 418 580Q588 547 661 478Q752 392 752 274Z" />
<glyph unicode="t" glyph-name="t" horiz-adv-x="775" d="M722 265Q722 152 674 72Q616 -24 510 -24Q378 -24 307 54T235 265V855H53V904Q195 909 268 1049Q327 1160 329 1317H382V923H687V855H382V261Q382 30 526 30Q671 30 671 320Q671 338 670 387H722V265Z" />
<glyph unicode="u" glyph-name="u" horiz-adv-x="1181" d="M1129 0L821 -24V169Q732 -24 545 -24Q353 -24 282 64Q219 142 219 339V714Q219 816 184 840Q160 856 53 855V923L367 946V236Q367 122 403 76Q445 24 555 24Q679 24 751 132Q814 226 814 356V736Q814
823 769 845Q744 857 647 855V923L962 946V185Q962 98 1007 76Q1032 64 1129 66V0Z" />
<glyph unicode="v" glyph-name="v" horiz-adv-x="1151" d="M1099 855Q957 854 901 713L622 16Q606 -24 577 -24Q548 -24 532 16L223 776Q199 836 155 849Q134 856 53 855V923Q173 915 260 915Q261 915 493 923V855Q371 855 371 801Q371 786 623 167L842 713Q855
745 855 763Q855 853 753 855V923Q888 915 938 915Q1007 915 1099 923V855Z" />
<glyph unicode="w" glyph-name="w" horiz-adv-x="1571" d="M1518 855Q1387 852 1339 719L1087 16Q1073 -24 1045 -24Q1017 -24 1003 16L783 624L567 18Q552 -24 525 -24Q497 -24 480 24L210 781Q191 835 148 849Q125 856 53 855V923Q196 915 251 915Q251 915 484
923V855Q359 856 359 797Q359 787 362 779L573 188L756 706Q718 811 702 827Q673 855 573 855V923Q693 915 762 915Q761 915 986 923V855Q858 856 858 799Q858 788 869 757L1082 162L1277 708Q1287 736 1287 754Q1287 852 1162 855V923Q1313 915 1362 915Q1430
915 1518 923V855Z" />
<glyph unicode="x" glyph-name="x" horiz-adv-x="1183" d="M1131 0Q1040 6 925 6Q871 6 694 0V66Q771 69 771 120Q771 130 563 405L401 204Q371 167 371 133Q371 72 433 66V0Q292 6 230 6Q132 6 53 0V66Q205 66 320 194Q372 252 527 450L315 726Q244 818 212 835Q176
855 63 855V923Q173 915 265 915Q295 915 498 923V855Q423 853 423 803Q423 783 607 548L741 715Q774 756 774 790Q774 851 711 855V923Q819 915 915 915Q988 915 1092 923V855Q940 852 837 746Q818 726 640 502L927 133Q964 86 1019 73Q1051 65 1131 66V0Z" />
<glyph unicode="y" glyph-name="y" horiz-adv-x="1151" d="M1099 855Q957 856 900 719L523 -194Q422 -439 249 -439Q173 -439 115 -391Q53 -339 53 -265Q53 -174 142 -174Q181 -174 207 -199T233 -263Q233 -344 148 -354Q189 -392 249 -392Q342 -392 407 -300Q439
-255 493 -127Q511 -85 546 0L225 781Q203 835 155 849Q129 857 53 855V923Q173 915 260 915Q290 915 493 923V855Q373 856 373 801Q373 782 623 185L840 713Q854 747 854 763Q854 853 753 855V923Q923 915 938 915Q1007 915 1099 923V855Z" />
<glyph unicode="z" glyph-name="z" horiz-adv-x="904" d="M852 400L814 0H91Q53 0 53 30Q53 45 71 69L663 866H425Q257 866 198 804Q145 747 136 578H83L107 923H808Q846 923 846 895Q846 881 828 857L240 64H484Q667 64 732 145Q784 210 797 400H852Z" />
<glyph unicode="{" glyph-name="braceleft" horiz-adv-x="983" d="M827 -327Q827 -350 786 -350Q612 -350 501 -272Q428 -221 408 -156Q395 -114 395 -7V306Q395 423 320 490Q251 551 133 560Q100 562 100 582Q100 600 118 603T153 607Q395 638 395 859V1172Q395
1279 408 1321Q428 1386 501 1437Q610 1514 786 1514Q827 1514 827 1492Q827 1473 809 1469Q655 1460 572 1375Q530 1332 518 1261Q513 1227 513 1132V855Q513 766 492 723Q445 627 290 582Q445 537 492 441Q513 399 513 310V33Q513 -62 518 -96Q530 -167 572 -210Q655
-295 809 -304Q827 -308 827 -327Z" />
<glyph unicode="|" glyph-name="bar" horiz-adv-x="410" d="M246 -311Q246 -352 205 -352Q164 -352 164 -311V1477Q164 1516 205 1516Q246 1516 246 1477V-311Z" />
<glyph unicode="}" glyph-name="braceright" horiz-adv-x="983" d="M883 582Q883 565 865 562T830 558Q588 527 588 306V-7Q588 -114 575 -156Q555 -221 482 -272Q371 -350 197 -350Q156 -350 156 -327Q156 -308 174 -304Q328 -295 411 -210Q453 -167 465 -96Q470
-62 470 33V310Q470 399 491 441Q538 537 693 582Q538 627 491 723Q470 766 470 855V1132Q470 1227 465 1261Q453 1332 411 1375Q328 1460 174 1469Q156 1473 156 1492Q156 1514 197 1514Q373 1514 482 1437Q555 1386 575 1321Q588 1279 588 1172V859Q588 742 663
675Q732 614 850 605Q883 603 883 582Z" />
<glyph unicode="~" glyph-name="asciitilde" horiz-adv-x="1058" d="M1021 659Q1021 548 951 466Q878 380 770 380Q670 380 523 496T289 613Q153 613 110 482Q104 453 97 424Q85 381 67 381Q37 381 37 438Q37 547 108 629Q182 716 289 716Q389 716 536 599T770
482Q925 482 962 666Q971 715 993 715Q1021 715 1021 659Z" />
</font>
</defs>
</svg>
